PathFileType	4	(X/Y/Z)	C:\Users\86182\Documents\cortex\Trimmed_M4_L11.trc
DataRate	CameraRate	NumFrames	NumMarkers	Units	OrigDataRate	OrigDataStartFrame	OrigNumFrames
100.00	100.00	       70	2	mm	100.00	361	       901
Frame#	Time	gripper			box			
		X1	Y1	Z1	X2	Y2	Z2	

361	3.600	274.60736	150.43156	292.40912	276.70056	147.68675	155.52095	
362	3.610	274.59070	150.43398	292.45056	276.66699	147.67616	155.56572	
363	3.620	274.58038	150.43520	292.47754	276.64084	147.66794	155.60358	
364	3.630	274.57471	150.43530	292.49341	276.62225	147.66280	155.63519	
365	3.640	274.57211	150.43463	292.50116	276.61102	147.66052	155.66113	
366	3.650	274.57150	150.43367	292.50348	276.60666	147.66037	155.68201	
367	3.660	274.57199	150.43269	292.50262	276.60797	147.66133	155.69798	
368	3.670	274.57303	150.43192	292.50031	276.61325	147.66243	155.70868	
369	3.680	274.57416	150.43138	292.49762	276.62061	147.66272	155.71350	
370	3.690	274.57523	150.43109	292.49521	276.62836	147.66167	155.71252	
371	3.700	274.57617	150.43106	292.49335	276.63550	147.65936	155.70697	
372	3.710	274.57700	150.43121	292.49213	276.64166	147.65631	155.69887	
373	3.720	274.57770	150.43152	292.49146	276.64670	147.65320	155.69048	
374	3.730	274.57834	150.43190	292.49121	276.65060	147.65053	155.68356	
375	3.740	274.57889	150.43227	292.49124	276.65353	147.64857	155.67902	
376	3.750	274.57919	150.43243	292.49133	276.65564	147.64737	155.67679	
377	3.760	274.57907	150.43217	292.49133	276.65677	147.64680	155.67599	
378	3.770	274.57813	150.43121	292.49106	276.65659	147.64670	155.67535	
379	3.780	274.57590	150.42920	292.49030	276.65472	147.64679	155.67345	
380	3.790	274.57187	150.42581	292.48889	276.65079	147.64684	155.66907	
381	3.800	274.56567	150.42081	292.48672	276.64474	147.64664	155.66158	
382	3.810	274.55713	150.41431	292.48376	276.63693	147.64616	155.65138	
383	3.820	274.54681	150.40694	292.48035	276.62842	147.64549	155.63995	
384	3.830	274.53607	150.39981	292.47699	276.62051	147.64481	155.62917	
385	3.840	274.52695	150.39423	292.47443	276.61462	147.64427	155.62085	
386	3.850	274.52127	150.39101	292.47321	276.61163	147.64406	155.61620	
387	3.860	274.52014	150.39017	292.47354	276.61169	147.64421	155.61542	
388	3.870	274.52365	150.39095	292.47491	276.61414	147.64467	155.61774	
389	3.880	274.53076	150.39209	292.47650	276.61771	147.64526	155.62177	
390	3.890	274.53992	150.39256	292.47754	276.62131	147.64583	155.62616	
391	3.900	274.54987	150.39201	292.47772	276.62433	147.64630	155.63000	
392	3.910	274.55960	150.39076	292.47723	276.62650	147.64662	155.63281	
393	3.920	274.56815	150.38937	292.47644	276.62781	147.64680	155.63448	
394	3.930	274.57452	150.38821	292.47559	276.62839	147.64688	155.63507	
395	3.940	274.57822	150.38731	292.47498	276.62842	147.64685	155.63478	
396	3.950	274.57907	150.38658	292.47461	276.62802	147.64676	155.63387	
397	3.960	274.57706	150.38596	292.47458	276.62747	147.64662	155.63263	
398	3.970	274.57236	150.38554	292.47495	276.62695	147.64650	155.63153	
399	3.980	274.56555	150.38557	292.47574	276.62671	147.64644	155.63104	
400	3.990	274.55759	150.38640	292.47702	276.62677	147.64642	155.63139	
401	4.000	274.54926	150.38811	292.47870	276.62711	147.64647	155.63235	
402	4.010	274.54117	150.39050	292.48062	276.62738	147.64651	155.63338	
403	4.020	274.53369	150.39305	292.48254	276.62735	147.64653	155.63402	
404	4.030	274.52698	150.39519	292.48425	276.62689	147.64648	155.63402	
405	4.040	274.52118	150.39655	292.48553	276.62601	147.64639	155.63339	
406	4.050	274.51654	150.39709	292.48633	276.62485	147.64624	155.63232	
407	4.060	274.51361	150.39699	292.48669	276.62369	147.64610	155.63113	
408	4.070	274.51312	150.39636	292.48651	276.62280	147.64598	155.63016	
409	4.080	274.51578	150.39542	292.48584	276.62228	147.64592	155.62961	
410	4.090	274.52191	150.39430	292.48462	276.62238	147.64594	155.62968	
411	4.100	274.53149	150.39331	292.48297	276.62308	147.64606	155.63043	
412	4.110	274.54361	150.39279	292.48117	276.62424	147.64624	155.63165	
413	4.120	274.55664	150.39291	292.47949	276.62549	147.64644	155.63297	
414	4.130	274.56876	150.39355	292.47815	276.62662	147.64661	155.63412	
415	4.140	274.57828	150.39430	292.47717	276.62747	147.64674	155.63496	
416	4.150	274.58371	150.39473	292.47659	276.62808	147.64684	155.63551	
417	4.160	274.58371	150.39458	292.47653	276.62845	147.64688	155.63576	
418	4.170	274.57797	150.39397	292.47705	276.62866	147.64691	155.63579	
419	4.180	274.56799	150.39330	292.47812	276.62878	147.64691	155.63568	
420	4.190	274.55682	150.39302	292.47949	276.62891	147.64693	155.63554	
421	4.200	274.54749	150.39334	292.48087	276.62900	147.64693	155.63542	
422	4.210	274.54187	150.39417	292.48190	276.62906	147.64693	155.63536	
423	4.220	274.54041	150.39513	292.48248	276.62900	147.64693	155.63539	
424	4.230	274.54236	150.39578	292.48245	276.62888	147.64691	155.63547	
425	4.240	274.54645	150.39566	292.48187	276.62866	147.64690	155.63554	
426	4.250	274.55087	150.39461	292.48090	276.62845	147.64687	155.63556	
427	4.260	274.55374	150.39294	292.47989	276.62820	147.64684	155.63551	
428	4.270	274.55392	150.39128	292.47925	276.62796	147.64680	155.63541	
429	4.280	274.55151	150.39017	292.47913	276.62772	147.64677	155.63525	
430	4.290	274.54779	150.38979	292.47949	276.62753	147.64674	155.63512	
